PathFileType	4	(X/Y/Z)	C:\Users\Admin\Desktop\Capture Files\05302019 Reflex Trials\StaticTrial_1-Unnamed.trc
DataRate	CameraRate	NumFrames	NumMarkers	Units	OrigDataRate	OrigDataStartFrame	OrigNumFrames
300.00	300.00	      26	0	mm	300.00	427	      1137
Frame#	Time	
		

427	1.420	579.33429	-624.19458	918.19183				498.02805	-499.42935	874.73102	896.07666	-725.29822	1114.89673	431.86322	-312.67114	455.81100	179.93303	-512.70172	611.14014	157.91039	-529.05652	409.54550	822.50763	-766.55212	1020.85205	290.95575	-499.39413	729.73438				182.79372	-589.08765	725.12677	370.83167	-425.43671	715.17169	499.82376	-364.89050	739.37457				428.45724	-327.09161	640.04315	
428	1.423	579.33252	-624.21814	918.17938				498.02408	-499.39978	874.72888	896.04449	-725.27722	1114.93164	431.83539	-312.66519	455.81488	179.92201	-512.71051	611.14111	157.93149	-529.06653	409.54126	822.56030	-766.58600	1020.85413	290.93109	-499.35135	729.74463				182.77632	-589.07648	725.10907	370.82507	-425.43082	715.18616	499.80231	-364.87009	739.37781				428.46234	-327.08908	640.06354	
429	1.427	579.33118	-624.20496	918.17291				498.03000	-499.40472	874.72321	896.10254	-725.30280	1114.93066	431.84180	-312.68039	455.80807	179.90816	-512.71130	611.12506	157.92845	-529.06598	409.52191	822.49707	-766.53802	1020.86670	290.93933	-499.37106	729.72253				182.76567	-589.08905	725.10486	370.79263	-425.39810	715.18207	499.80353	-364.86133	739.37604				428.43604	-327.07349	640.03461	
430	1.430	579.33240	-624.17834	918.16394				498.03345	-499.41592	874.72235	896.08545	-725.27063	1114.94812	431.85748	-312.68655	455.79382	179.91472	-512.69269	611.11139	157.92514	-529.04108	409.52969	822.46820	-766.48340	1020.86176	290.94730	-499.37796	729.71716				182.77806	-589.08020	725.09430	370.80899	-425.40176	715.18091	499.79623	-364.87073	739.37158				428.42947	-327.06531	640.04657	
431	1.433	579.30383	-624.18427	918.17627	863.14978	-848.48370	1270.86975	498.02820	-499.41010	874.71057	896.02924	-725.24976	1114.95398	431.83856	-312.67056	455.78687	179.92908	-512.69025	611.11841	157.91626	-529.08649	409.51251	822.51501	-766.50653	1020.87537	290.16095	-498.76013	730.21411				182.76323	-589.07153	725.10846	370.82352	-425.40305	715.15332	499.78271	-364.84155	739.36560				428.43384	-327.07471	640.02332	
432	1.437	579.32483	-624.19281	918.15863	863.04926	-848.34003	1270.80420	498.00558	-499.39594	874.70538	896.07288	-725.27417	1114.93616	431.83246	-312.66769	455.77716	179.90161	-512.67480	611.10559	157.93915	-529.07831	409.51718	822.56622	-766.51703	1020.88257	290.93311	-499.35294	729.70587				182.76483	-589.06732	725.09387	370.79965	-425.39639	715.16217	499.80374	-364.85422	739.36646				428.43130	-327.08008	640.02441	
433	1.440	579.32349	-624.19562	918.16937				498.02533	-499.40033	874.71094	896.03796	-725.21326	1114.93616	431.83929	-312.67691	455.78165	179.91321	-512.69568	611.10107	157.93646	-529.05878	409.50516	822.57599	-766.54388	1020.90808	290.90256	-499.33466	729.71283				182.76390	-589.08807	725.09900	370.81323	-425.40561	715.15033	499.80685	-364.86053	739.36255				428.42175	-327.06516	640.03223	
434	1.443	579.31635	-624.18707	918.17499	863.11700	-848.46667	1270.89014	498.00830	-499.39154	874.70563	896.05298	-725.20837	1114.94421	431.83630	-312.67252	455.77029	179.90042	-512.66791	611.09613	157.93805	-529.09308	409.49152	822.53888	-766.48224	1020.88977	290.90948	-499.35196	729.69763				182.76820	-589.05377	725.06610	370.80130	-425.38641	715.14740	499.80176	-364.86539	739.36035				428.43637	-327.07303	640.02301	
435	1.447	579.30212	-624.19495	918.15601				497.99579	-499.39334	874.70648	896.09424	-725.22296	1114.95911	431.85855	-312.67041	455.77463	179.90327	-512.68433	611.08130	157.92415	-529.07190	409.48502	822.59064	-766.51849	1020.86615	290.91101	-499.33633	729.68921				182.77597	-589.06274	725.06610	370.80457	-425.40421	715.14777	499.80524	-364.85428	739.34442				428.40930	-327.06024	640.01404	
436	1.450	579.29541	-624.18524	918.16083				497.97452	-499.38791	874.69617	896.09991	-725.24030	1114.93213	431.83835	-312.67157	455.76620	179.90924	-512.68542	611.08356	157.95056	-529.09485	409.45926	822.53412	-766.45917	1020.88074	290.89844	-499.33740	729.70575				182.75946	-589.05737	725.05835	370.79092	-425.39423	715.14960	499.79825	-364.85803	739.33942				428.42877	-327.06378	640.01581	
437	1.453	579.29120	-624.18256	918.16339				497.98770	-499.39453	874.69604	896.04010	-725.17645	1114.93921	431.85739	-312.67429	455.75882	179.90065	-512.67010	611.07751	157.93990	-529.09424	409.47049	822.54065	-766.46820	1020.90045	290.88849	-499.29684	729.69427				182.76337	-589.04517	725.05664	370.79218	-425.39362	715.12109	499.78558	-364.83743	739.33600				428.41751	-327.07654	640.00568	
438	1.457	579.29498	-624.16772	918.15692	862.88544	-848.10748	1270.85278	497.98071	-499.37973	874.70746	896.08728	-725.19690	1114.95508	431.86804	-312.68033	455.75742	179.90263	-512.67230	611.08588	157.92281	-529.09351	409.48038	822.56079	-766.47235	1020.90466	290.13602	-498.75040	730.18475				182.76010	-589.05841	725.05463	370.77878	-425.38489	715.12634	499.77527	-364.84073	739.33618				428.42365	-327.06189	640.01880	
439	1.460	579.26782	-624.17603	918.15466				497.96219	-499.37057	874.68439	896.06256	-725.16815	1114.93811	431.85739	-312.65598	455.75000	179.90942	-512.68542	611.07819	157.92636	-529.09125	409.47849	822.56512	-766.46753	1020.90747	290.89810	-499.31390	729.67487				182.74902	-589.07196	725.04297	370.79230	-425.39420	715.13477	499.77057	-364.84851	739.34027				428.41516	-327.06403	639.99817	
440	1.463	579.28223	-624.17828	918.15839	862.89642	-848.04163	1270.88611	497.97458	-499.38477	874.68402	896.12634	-725.21393	1114.95593	431.85773	-312.67020	455.75314	179.90756	-512.68060	611.07074	157.94896	-529.08716	409.46228	822.62012	-766.48492	1020.91730	290.90576	-499.32578	729.67285				182.76967	-589.06354	725.04834	370.79614	-425.40161	715.11578	499.79300	-364.85895	739.32965				428.39282	-327.05231	639.99573	
441	1.467	579.28198	-624.17590	918.13245	862.96893	-848.15686	1270.89368	497.95493	-499.36880	874.67255	896.08673	-725.17108	1114.97107	431.85709	-312.66104	455.74960	179.91510	-512.68201	611.05902	157.92967	-529.07373	409.46509	822.56348	-766.41840	1020.90747	290.89432	-499.30444	729.67365				182.75053	-589.05817	725.03278	370.80130	-425.40549	715.11627	499.77811	-364.84659	739.32733				428.39078	-327.04568	639.98871	
442	1.470	579.28558	-624.18262	918.14484				497.94717	-499.36975	874.68292	896.10712	-725.14764	1114.96753	431.84946	-312.65866	455.74506	179.87477	-512.65704	611.06592	157.94516	-529.08820	409.46667	822.62390	-766.48907	1020.92694	290.88312	-499.32373	729.67865				182.75775	-589.05951	725.04181	370.78146	-425.39139	715.11414	499.77396	-364.85349	739.33160				428.40765	-327.05750	639.97638	
443	1.473	579.26404	-624.16418	918.14520				497.94113	-499.37259	874.67322	896.09430	-725.18036	1114.96777	431.85526	-312.66873	455.73935	179.89249	-512.67999	611.05280	157.92673	-529.06348	409.46121	822.58136	-766.44464	1020.93433	290.90576	-499.31531	729.65955				182.74040	-589.05750	725.04260	370.77991	-425.39224	715.11353	499.77051	-364.85440	739.32202				428.40140	-327.05029	639.98511	
444	1.477	579.26923	-624.16644	918.15149				497.94675	-499.37366	874.67371	896.03235	-725.09290	1114.95642	431.84811	-312.66837	455.72891	179.87621	-512.66388	611.08044	157.92809	-529.06842	409.46021	822.60840	-766.46124	1020.91846	290.89774	-499.33167	729.66718				182.75127	-589.05139	725.04065	370.77957	-425.40619	715.09735	499.75674	-364.84161	739.32709				428.40103	-327.04166	639.99402	
445	1.480	579.27283	-624.18414	918.14783	862.94983	-848.04999	1270.94043	497.96225	-499.39346	874.67108	896.04242	-725.07733	1114.97559	431.86569	-312.65173	455.73553	179.89079	-512.67310	611.05548	157.92770	-529.07721	409.46332	822.62018	-766.44482	1020.91309	290.89752	-499.35727	729.66870				182.74568	-589.05945	725.03387	370.76218	-425.38849	715.10748	499.76703	-364.85196	739.31281				428.41183	-327.05847	639.99377	
446	1.483	579.26538	-624.15369	918.14777	862.83624	-847.93561	1270.96875	497.94565	-499.38211	874.66742	896.06067	-725.11145	1114.99683	431.84143	-312.66345	455.73605	179.88071	-512.67200	611.04706	157.94736	-529.08643	409.45258	822.63782	-766.43298	1020.93323	290.90179	-499.34137	729.66467				182.73148	-589.06274	725.04492	370.77408	-425.40121	715.09625	499.77075	-364.85248	739.31628				428.40189	-327.04315	639.99500	
447	1.487	579.25586	-624.16412	918.14142	863.08832	-848.32922	1271.02747	497.93121	-499.36765	874.66516	896.13678	-725.12476	1114.97864	431.85297	-312.66016	455.72263	179.90001	-512.66382	611.05219	157.94577	-529.06671	409.44269	822.63281	-766.44476	1020.91827	290.89270	-499.30707	729.65991				182.72313	-589.05341	725.02985	370.78128	-425.38300	715.07892	499.75125	-364.85779	739.32147				428.39688	-327.04947	639.98022	
448	1.490	579.25830	-624.16473	918.14935				497.92020	-499.37558	874.66394	896.13281	-725.12531	1115.00305	431.86551	-312.66483	455.72974	179.89445	-512.68304	611.04041	157.91971	-529.05243	409.47250	822.71747	-766.44275	1020.94257	290.90787	-499.32922	729.65790				182.74538	-589.05554	725.03741	370.78131	-425.41003	715.08099	499.75400	-364.86508	739.32465				428.40445	-327.05975	639.98828	
449	1.493	579.26563	-624.15649	918.15454	862.93658	-848.07965	1270.99805	497.93423	-499.37534	874.65070	896.12537	-725.09265	1115.00183	431.86835	-312.68063	455.71921	179.89049	-512.67188	611.05127	157.95033	-529.08795	409.45035	822.67896	-766.42633	1020.95129	290.89023	-499.32050	729.66644				182.75397	-589.05426	725.04199	370.77005	-425.40887	715.06860	499.73938	-364.84555	739.30676				428.39111	-327.04553	639.97894	
450	1.497	579.26337	-624.18268	918.14807	862.89063	-847.97113	1271.01123	497.93927	-499.37213	874.66345	896.12170	-725.05145	1115.00061	431.86200	-312.65280	455.74240	179.88007	-512.66986	611.05865	157.92949	-529.06976	409.45428	822.66559	-766.36877	1020.94427	290.87024	-499.31552	729.65143				182.74411	-589.06860	725.03870	370.76712	-425.39752	715.08002	499.73541	-364.84186	739.31427				428.38477	-327.05368	639.98010	
451	1.500	579.24756	-624.15350	918.13812	862.73456	-847.74170	1270.96997	497.92340	-499.37878	874.67480	896.07141	-725.03418	1115.02209	431.85617	-312.65405	455.72098	179.88647	-512.66162	611.05164	157.92303	-529.06506	409.45874	822.63623	-766.33704	1020.93427	290.88156	-499.33618	729.65820				182.72885	-589.04816	725.01367	370.75568	-425.39706	715.08051	499.74405	-364.85391	739.30750				428.39551	-327.03741	639.97760	
452	1.503	579.25641	-624.15417	918.15314	862.89801	-848.00110	1271.02185	497.93182	-499.37973	874.65167	896.13129	-725.06757	1114.97961	431.86575	-312.67010	455.73187	179.88116	-512.67957	611.05566	157.93625	-529.06982	409.44238	822.75494	-766.43182	1020.98218	290.88559	-499.32404	729.64526				182.73523	-589.05145	725.03571	370.75879	-425.39523	715.08173	499.73920	-364.84961	739.31531				428.37738	-327.04852	639.98059	
